ply
format ascii 1.0
comment Exported by Aspose.3D 22.7
element vertex 610
property float x
property float y
property float z
element face 1216
property list uchar int vertex_index
end_header
0.0031760379 -0.00052382553 0.0011295403
0.0031450738 -0.00060738041 0.0016884333
0.0031334092 -0.00089699106 0.0010979429
0.0031287011 -0.00086049992 0.0015372003
0.0031106058 -6.2223335E-05 0.001236764
0.0030992227 -0.00049131812 0.00040886519
0.0030938243 -0.00021630063 0.0018439116
0.0030611949 -0.00092811557 0.00040758622
0.0030296072 -0.001022128 0.0017277391
0.0030167627 -0.00077115843 0.0020575074
0.0030059742 3.8010025E-05 0.00048457715
0.0029997311 -0.0011544527 0.0011977338
0.002952134 0.00022133846 0.001981013
0.0029511552 -0.00042133941 0.0022646245
0.0029275245 0.00042720645 0.0013722007
0.0029067704 -0.00048722955 -0.00040979174
0.0029053739 -0.0012174891 0.00049050368
0.0028830473 -0.00095515989 -0.00040341023
0.0028503928 -0.0011809138 0.0018794913
0.00283602 -1.7638464E-05 0.0024030972
0.0028213214 -0.0009621256 0.0022497729
0.0027945661 -0.0013101025 0.0013249279
0.0027904424 8.6931817E-05 -0.00034926145
0.0027810272 0.0005827499 0.00061419781
0.0027295288 0.00061176444 0.0021276462
0.0027243339 -0.0012541944 -0.00032477215
0.0026880747 -0.00067068805 0.0025434147
0.0026653411 -0.0013745485 0.00061108597
0.0026618484 0.00034178057 0.0025315969
0.0026496297 0.00085340004 0.0015382334
0.0026350438 -0.0012795015 0.0019052404
0.0026292729 -0.00024127326 0.0026723526
0.0026043227 -0.0011308165 0.0022426085
0.0025913953 -0.00050604058 -0.0012429556
0.0025797822 -0.00098405278 -0.0012340328
0.0025499414 -0.0013782779 0.0013972719
0.0025427747 0.00067800668 -0.00023364741
0.0025023925 8.2871251E-05 0.0027780631
0.0024765185 -0.0009913895 0.0024704377
0.0024673759 -0.0014090134 -0.00020244266
0.0024664588 8.9122455E-05 -0.0011927212
0.0024561181 0.0010468849 0.00079045224
0.0024537868 -0.0013191308 0.0018394159
0.0024410819 0.00087846554 0.0023085375
0.0024288918 0.00058645289 0.0026901211
0.0024279542 -0.0012818807 -0.0011565624
0.002382478 -0.0014338217 0.00072223681
0.0023785587 -0.0012562919 0.0020314192
0.0023195969 0.00029601587 0.0029118052
0.0023191287 -0.001384104 0.0014596651
0.0023052855 0.0011407253 0.0017403947
0.0022921255 -0.00068462919 0.0028063431
0.0022844686 -0.00038324669 0.0028914418
0.0022493224 -0.0011802659 0.0022154967
0.0022203717 0.00070804282 -0.0010967701
0.0021993932 -0.00012241486 0.0029694852
0.0021958677 0.001177409 -6.6798719E-05
0.0021856364 -0.000940884 0.0026715335
0.0021701187 -0.001431109 -0.0010334236
0.0021592779 -0.0014661925 -6.8874768E-05
0.0021577301 -0.0005433964 -0.0020113725
0.0021478608 -0.0010158512 -0.00199477
0.0021473791 0.00072920229 0.0028689308
0.0021436706 -0.0013536559 0.0015893076
0.0021092626 -0.0014375052 0.00083089957
0.0021000665 0.0010312534 0.002508265
0.0020948367 0.00042127553 0.0030661069
0.0020672008 0.0013531607 0.001005685
0.0020537635 3.8359329E-05 0.0030753789
0.0020422405 4.9469396E-05 -0.0019775571
0.0020078784 -0.0011379118 0.002383678
0.0020020974 -0.0013071058 -0.0019200458
0.0019958406 -0.00045507844 0.0030326901
0.001989458 -0.0013142792 0.0017336051
0.0019780265 -0.00070738024 0.0029626745
0.0019656518 -0.00025660693 0.0030764227
0.0019123143 0.0013015618 0.0019579737
0.0018949407 -0.00093282451 0.0028191318
0.0018875977 -0.0014235252 0.00095071876
0.001877607 0.0012305066 -0.00095247664
0.0018673444 0.00013405093 0.0032040488
0.0018568889 -0.0014725501 6.1838E-05
0.0018531906 -0.0014853503 -0.0008934412
0.001843769 -0.00020221403 0.0031494501
0.0018405038 0.00049233477 0.003222232
0.0018273108 0.00080219173 0.0030473964
0.0018205219 0.00067069422 -0.0019036577
0.0018161817 -0.0012868006 0.0018542522
0.001784165 0.0014986084 0.00014608195
0.0017752128 -0.00045260758 0.0031393396
0.0017711929 -0.0011194103 0.0025072994
0.0017522865 -0.0014492922 -0.001804458
0.001717311 0.0011031945 0.0027040683
0.0017087061 -0.00070017431 0.0030815871
0.0017059763 -0.0014050559 0.0010681045
0.001702223 -0.00014048582 0.0032408198
0.0016976319 0.00019702263 0.0033180879
0.0016661106 -0.0012685227 0.0019377372
0.0016625116 -0.00091989036 0.0029159889
0.001657147 -0.00058944314 -0.0026675307
0.0016440497 -0.0010348132 -0.0026387293
0.0016349496 0.0015182674 0.0012374657
0.0016066818 -0.0014671423 0.00018145812
0.0015732432 -8.2168772E-05 0.0033238856
0.0015725928 -0.00040518306 0.0032386463
0.0015571986 0.00052993832 0.0033613604
0.0015571577 -2.795993E-05 -0.002659309
0.0015515002 -0.0011009341 0.0026024894
0.0015377102 -0.001387251 0.0011696444
0.0015370243 -0.0014917026 -0.00075695274
0.0015108789 0.00023265282 0.003418636
0.0015037068 0.0011960953 -0.0017855744
0.0015002998 -0.0013139595 -0.0025761989
0.0014827434 0.0013723254 0.0021682007
0.0014815929 -0.00033781267 0.0032864099
0.00147131 0.00083758379 0.0032079192
0.0014703763 -0.0012468994 0.0020285212
0.001463479 0.0015602789 -0.00075668038
0.0014506681 -4.7327761E-05 0.0033935953
0.0014445004 -0.0006742577 0.0031530107
0.0014436331 -0.0014963613 -0.0016711517
0.0014184006 -0.00090749172 0.0029547918
0.0014038892 -0.0014577333 0.00028681153
0.0013795929 -0.0002978837 0.0033392373
0.0013792386 -0.00054354302 0.0031946772
0.0013688495 0.00056985044 -0.0026102262
0.0013644965 -0.0010808499 0.002628058
0.0013578655 -0.0013682833 0.0012655419
0.0013301142 -0.0012201711 0.0020571207
0.0013280909 0.0016625647 0.00038639465
0.0013105597 -0.00049597881 0.0032244271
0.0012956676 0.0011340502 0.0028839835
0.0012931261 0.00023934487 0.0035009312
0.0012910637 -5.0930656E-05 0.0034647668
0.0012717257 -0.0014879014 -0.00063865579
0.0012648653 -0.0014525508 -0.0024801255
0.0012631303 -0.00092199526 0.0028260944
0.0012535133 -0.00031454835 0.0034036753
0.0012473447 0.00054481818 0.0034692937
0.0012288351 -0.0007752449 0.0029828011
0.0012261111 -0.0010624573 0.0025444385
0.0012091739 -0.0011811954 0.0020269859
0.0012064043 -0.0014433517 0.00038895578
0.0012048654 -0.00052816031 0.0032808452
0.0012006699 -0.00066613691 0.0030264792
0.0011722117 0.0015845221 0.0014643876
0.0011513269 -0.00035863408 0.0034487161
0.0011512188 -0.00064067455 -0.0031741876
0.0011480723 -0.0010250082 -0.0031274017
0.0011480452 -0.00062150735 0.0030462467
0.0011409012 -0.0013438092 0.0013697111
0.0011380556 -0.00095569441 0.0025334822
0.0011324013 -0.0014966208 -0.0015418665
0.001125669 -0.0010468732 0.0024138403
0.0011179601 -7.7923243E-05 0.0035246492
0.0011032654 0.0015266475 -0.0016175493
0.0010906836 -0.00083817344 0.0026416257
0.0010892471 0.001081279 -0.0025173689
0.001086241 0.00085585285 0.0033381693
0.0010593369 -0.00065815897 0.0030920689
0.0010591173 0.00021549626 0.0035645785
0.001055463 -0.0014807412 -0.00053917809
0.0010552255 -0.00074253674 0.0026735805
0.0010548085 -0.00014264275 -0.0032009201
0.0010413626 -0.0011147201 0.0020282574
0.001039609 -0.0014257634 0.00047186238
0.001024402 -0.00064010068 0.0033494332
0.0010159628 0.0013975626 0.0023663023
0.00099882763 -0.00070192129 0.0026908466
0.00099760969 0.0017238563 -0.00052014773
0.00099672016 -0.0012779792 -0.0030970988
0.00098780834 -0.0014955403 -0.0023565057
0.00097321888 -0.00037252239 0.0035171541
0.00094567734 -0.00076200749 0.003109233
0.00093857414 -0.0010119358 0.0020805586
0.00093395088 -0.0014718872 -0.00048443809
0.00093245378 0.00052059046 0.0035504145
0.00093121117 -0.00073939055 0.0027278815
0.00093105971 -0.00010907426 0.0035752626
0.00092667091 -0.001309089 0.0014541254
0.00090057665 -0.00062927371 0.0034452113
0.00089926162 -0.0014041893 0.00053491362
0.00089389726 0.0004100363 -0.003179193
0.00087570993 -0.00089681149 0.0021309273
0.00086577644 -0.0014891038 -0.0014334121
0.00084346201 0.0011506815 0.0030413314
0.00084121031 0.0017197387 0.00063466723
0.0008382441 -0.00083325367 0.0027492214
0.00083708711 -0.0014596166 -0.00044493444
0.00082921842 -0.00080212398 0.0021438156
0.00082768506 -0.0008751484 0.0032090228
0.00081893103 0.00015423191 0.0036169887
0.00080468634 -0.0012597081 0.0014706741
0.00080054539 -0.00014103627 0.0035992728
0.00079944916 -0.00090743176 0.0030238957
0.00079586363 -0.00033904286 0.0035687669
0.00079452054 -0.00099355471 -0.0034023351
0.00077535346 -0.0014203327 -0.0030337423
0.00076530821 -0.00076170312 0.0021603531
0.00075795164 -0.00095084024 0.0026895318
0.00075646251 -0.00085715327 0.0033022284
0.00073420629 -0.0013703014 0.00059992023
0.00073391869 -0.0011827716 0.0014586106
0.00073373457 -0.00080133002 0.0021832732
0.00072204822 -0.0014418522 -0.00040327958
0.00071495946 0.0014068744 -0.0023782591
0.00070703332 -0.0014892435 -0.0022376932
0.00070330803 0.00083072082 0.0034438716
0.00070231588 -0.00059409335 0.0035173527
0.00069146958 -0.00089617941 0.0022040894
0.00069077226 -0.0007315884 -0.003506491
0.00067581458 0.0016027974 0.0016839063
0.00066943659 -0.0010716814 0.0014585126
0.00066225126 -0.0010415047 0.0025988154
0.00065234519 0.00089622824 -0.0031079312
0.00064357289 -0.0014813921 -0.0013442881
0.00064061396 -0.0010492969 0.0027832431
0.00064047659 -0.0009519278 0.0014483144
0.00064002152 0.001696085 -0.001401634
0.00063806999 0.00043236883 0.0036129514
0.00062257878 1.962426E-05 0.0036510853
0.00062099897 -0.0010104832 0.002204603
0.00060188962 -0.001317879 0.00063823338
0.00058770308 -0.0010511953 0.00294832
0.00058359175 -0.00085338578 0.001449063
0.00057912368 -0.0011577072 -0.003457725
0.000564549 -0.00030741468 -0.0035711392
0.00056052505 -0.0014103685 -0.00034564105
0.00055567245 -0.0014726602 -0.0029118508
0.00054697355 -0.00082962401 0.0033846542
0.00053090299 -0.0014760544 -0.0013059633
0.0005222623 -0.00081189291 0.0014633365
0.00051718333 0.0014078089 0.0025516115
0.0005147339 -0.0011078849 0.0022375917
0.0005087746 -0.001236144 0.00065071776
0.00050479814 -0.00085311924 0.0014806413
0.00050477887 -0.0002248815 0.0036546176
0.0004964362 0.0017800399 -0.00025778939
0.00048834982 -0.0010467202 0.0030391384
0.00047760541 -0.00095168874 0.001511144
0.00045392691 -0.0011208585 0.00064294261
0.00045179381 -0.001469708 -0.0012857149
0.00045146467 -0.0014732947 -0.0021523861
0.00044877199 -0.0011645679 0.0023335402
0.00041695905 0.00019226482 -0.0035730572
0.00041370638 -0.00099679921 0.00063080911
0.00039888936 0.0011216558 0.0031797776
0.00039042789 -0.0013572482 -0.0002883416
0.00038677861 0.00024836947 0.0036619415
0.00038670763 -0.0010707795 0.0015645515
0.00038529973 -0.00052039063 0.0036140927
0.00037945958 -0.00089708576 0.0006231945
0.0003758652 -0.0011920548 0.0024397133
0.00035629963 0.00072553742 0.003532816
0.00035038957 -0.00085630832 0.00062621362
0.00034502186 -0.0013133972 -0.0034315912
0.00034182236 -0.0014680877 -0.0027938124
0.00033749669 -0.0010334956 0.003091556
0.00032597204 -0.0014569996 -0.0012479378
0.00032366833 0.0017311093 0.0008813286
0.00032138274 -0.00089765107 0.00064567366
0.00031355888 0.0012134175 -0.0029909904
0.00030319628 -0.0011797812 0.0016162929
0.00030210853 -0.00090472691 -0.0036608472
0.000291662 -0.00078983553 0.0034548372
0.00027733287 -0.00099778804 0.00068170141
0.00026866773 0.0015831363 -0.0021912302
0.00026283844 -0.0012031207 0.0025112249
0.00023501797 -0.0012536182 0.0016718053
0.00023368699 -0.0012716794 -0.00023778841
0.0002262674 -0.0014592354 -0.0020883027
0.00021194285 -0.00112227 0.00072845916
0.00021055427 0.00064619048 -0.003520231
0.00018961348 -5.1873041E-05 0.0036929126
0.00018384177 -0.0014008606 -0.0032980319
0.00017075198 -0.0014296394 -0.0011971509
0.00015716584 -0.0011519135 -0.00022175767
0.00014837578 0.0016079252 0.0018963575
0.0001454576 -0.0010160891 0.0031372481
0.00013701954 0.0017690825 -0.0011445165
0.00011562922 -0.00142827 -0.0031306935
0.00011366425 -0.0012367177 0.00078599947
0.00010885592 -0.001023205 -0.00021343707
0.00010777758 -0.00053032744 -0.0037529718
0.00010736281 -0.0014394511 -0.0027531874
0.00010380918 -0.0012943816 0.0017519337
9.9476863E-05 -0.0012041193 0.0025684482
7.1039976E-05 -0.00092008593 -0.00020354234
6.5006854E-05 0.00050891348 0.0036030149
3.6065991E-05 -0.00080114446 0.0034614778
3.3800898E-05 -0.00087761326 -0.00018914156
2.7538601E-05 0.0013694147 0.002721878
2.6964484E-05 -0.0014499325 -0.0020263484
1.2131808E-05 -0.0013777042 -0.0011407768
7.5225144E-06 -0.0011028182 -0.0036569959
2.6155649E-06 0.0010030989 0.0033020787
1.5034693E-06 -0.00046288199 0.0036532755
1.2206801E-06 -0.00091969006 -0.00017451197
-3.0649091E-05 0.0017941141 1.2832507E-05
-3.1889114E-05 -0.001030557 0.0031285812
-3.91168E-05 -0.0012054536 0.0025987979
-4.0621584E-05 -0.0010225214 -0.00015485467
-4.0791507E-05 -7.3606338E-05 -0.0037710657
-5.8517846E-05 -0.0013131333 0.00087019545
-5.8972488E-05 -0.0013153377 0.001824853
-8.5003863E-05 0.00095124077 -0.0034229271
-9.040178E-05 -0.0011510161 -0.00013247352
-9.9484583E-05 0.0013912431 -0.0028317026
-0.00010230122 -0.0013749127 -0.0032044656
-0.00012381263 -0.0014084808 -0.0027351535
-0.00013032868 -0.0012676414 -0.003501093
-0.00016490708 0.00016925795 0.0036445665
-0.00016837873 -0.0014415401 -0.0019598918
-0.00017339195 -0.0012685227 -9.6824006E-05
-0.00018559485 -0.0012877255 -0.0010582878
-0.0002099573 -0.0013585556 0.00093594834
-0.00021397049 -0.0012204463 0.0026188875
-0.00021446776 0.00034423659 -0.0037347623
-0.00021880164 0.0017380893 0.0011193475
-0.00021937815 0.0016747923 -0.0019570065
-0.00024118695 -0.0013262673 0.0018924391
-0.00024870012 -0.00092953019 0.0033743423
-0.00026993512 -0.0010979075 0.0030790227
-0.00029980417 -0.0013466966 -4.3862783E-05
-0.00031867469 -0.0011595928 -0.00099694903
-0.00032467037 0.00075967395 0.0033970147
-0.00033266423 -0.0008039641 -0.0037699048
-0.00035083108 -0.0013097384 -0.0032399991
-0.0003557303 -0.0013386392 0.0019232825
-0.00036122749 -0.00074914872 0.0035225956
-0.00036189982 -0.0014284452 -0.0018929623
-0.00036830376 0.0015620043 0.0020947314
-0.00036859422 -0.0013825648 0.0009983402
-0.00037449269 -0.0013885275 -0.0026742725
-0.0003744936 -0.00022562165 0.0036253002
-0.0003831675 0.0018013167 -0.00086362881
-0.00040297088 -0.0013916015 -3.6529382E-06
-0.0004032189 -0.0010216524 -0.00095063454
-0.00040811772 0.0012346095 0.0028719692
-0.00041811637 -0.0011361177 -0.0035723883
-0.00043062159 -0.00091169676 -0.00092734344
-0.00043146737 -0.0012572693 0.0026247764
-0.00044948244 -0.00033093768 -0.0038201225
-0.00044978806 0.0011260789 -0.0032905245
-0.00045157725 -0.00086612371 -0.00091240334
-0.00046112662 0.00063048193 -0.003659569
-0.00046638233 -0.0011696481 0.0029944733
-0.00049640436 -0.0009094234 -0.00089920603
-0.00050178135 -0.001354662 0.0019601148
-0.00053384021 -0.0014017975 -0.0018241232
-0.00053498591 -0.0011046939 0.0031577279
-0.00054246769 -0.0013947865 0.0010662114
-0.00054801285 -0.0010162496 -0.00089153554
-0.00055246882 0.0014866597 -0.0026321008
-0.00055744313 -0.001411587 6.1861028E-05
-0.00057023449 0.0018086376 0.00027555929
-0.00057569292 0.00038004952 0.0034486847
-0.0005840704 3.9649116E-05 -0.0037992264
-0.00061524153 -0.00058266788 0.0035125967
-0.000616281 -0.0012756916 -0.0031985175
-0.00061764522 -0.0013739831 -0.0025912689
-0.00063971459 -0.0011465474 -0.0008668559
-0.00064662786 -0.00128676 0.0026553269
-0.00066678075 -0.001266196 -0.00087148097
-0.00068201643 -0.00099870597 0.0032822615
-0.00068891793 -0.0013504258 -0.0017421263
-0.00069357059 -0.00083188509 -0.0037405058
-0.00070896663 -0.0014044222 0.0011332551
-0.00070932234 -0.0010932694 -0.0035406332
-0.0007147243 0.001723522 -0.0016850707
-0.00071790197 -0.0013749939 0.0020194524
-0.0007243306 -0.00050721114 -0.0038084614
-0.00074375403 -0.0013414893 -0.00084786303
-0.00074469502 0.0016933148 0.0013419443
-0.00076597172 0.00096331519 0.0029868006
-0.00076639536 0.0007980924 -0.0035546122
-0.00077684864 -5.9621441E-05 0.0034364308
-0.00078145403 0.0002894692 -0.0037446788
-0.00079602352 -0.00021787694 -0.0038083326
-0.00080511847 -0.0014157564 0.00017578638
-0.00082818203 0.0014117896 0.0022687539
-0.00084196124 -0.0012696596 0.0027700379
-0.00084441598 -0.0013542015 -0.0025023739
-0.00084447925 -0.0012589189 -0.0031280271
-0.00084998907 0.0012161752 -0.0031280771
-0.0008619919 -0.0012605671 -0.0016446866
-0.00086820428 -0.00038691974 -0.0038061254
-0.00087227125 -0.001413931 0.0012005529
-0.00089148583 -0.00086319493 0.0032933101
-0.000894745 -0.0013770936 -0.00078123552
-0.00089670555 -0.00060069468 -0.003773466
-0.00089774479 0.0018249488 -0.00057834527
-0.00092030369 -0.00086270139 -0.0036823449
-0.00093686749 -0.001087185 -0.0034770167
-0.00095076702 -3.4815515E-05 -0.0037670524
-0.00095171435 -0.00046322856 0.0033490253
-0.00095685991 -0.0013901134 0.0021023247
-0.00097123301 -0.0011309144 -0.0015850746
-0.00099638524 -0.00032999355 -0.0037672701
-0.0010052882 0.0015337315 -0.0023895393
-0.0010263422 0.00043738299 -0.0036639597
-0.0010339153 0.00054073212 0.0030512421
-0.0010376468 -0.0014171307 0.00028886241
-0.001041607 -0.0011952133 0.0028875289
-0.0010432586 -0.00098921952 -0.00154122
-0.0010498532 -0.0012342 -0.0030401435
-0.001055026 -0.00082575652 -0.0015033591
-0.0010557913 -0.00060168863 -0.0037185217
-0.0010564525 -0.00087426853 -0.0015148756
-0.0010711282 -0.00072847877 0.0032335327
-0.0010756624 -0.0013886043 -0.000690079
-0.0010857877 0.001768782 0.00052249717
-0.0010882965 -0.00085195084 -0.0036138115
-0.001090807 -0.0013208803 -0.0023672846
-0.001101005 0.00088271103 -0.0034237343
-0.0011019647 -0.0014209778 0.0013002706
-0.0011048416 -0.0010658992 -0.003402883
-0.0011064669 -0.00086909271 -0.001491638
-0.0011463321 -0.00097777217 -0.0014956247
-0.0011570391 7.5253833E-05 -0.0036969827
-0.0011689905 -0.00054985745 -0.003664223
-0.0011763589 -0.0011093152 -0.0014978399
-0.0011786097 -0.00026087358 -0.0036972675
-0.0011841104 -0.00120201 -0.0029222241
-0.001186163 -0.00081009575 -0.0035091846
-0.001186856 0.0017492964 -0.001390167
-0.0012074391 0.0011153844 0.0024024374
-0.0012102854 0.0015334017 0.0015401823
-0.0012109127 -0.0013813825 0.0022240665
-0.0012171939 -0.0012728625 -0.0022367991
-0.0012245417 -0.0013906159 -0.00060465897
-0.0012256204 4.5481247E-05 0.0030599302
-0.0012271062 -0.001223444 -0.0014916623
-0.0012369701 -0.0010366864 -0.0032638446
-0.0012418542 -0.0010492209 0.0029395891
-0.0012465419 0.0012524374 -0.0029242316
-0.0012604945 -0.0011666903 -0.0027371391
-0.0012615944 -0.0011970869 -0.0021503668
-0.0012653372 -0.001292507 -0.0015006594
-0.0012729126 -0.0014168499 0.0004084461
-0.0012882578 -0.00066326372 -0.0034496465
-0.0012918785 0.00051516999 -0.0035585209
-0.0013155766 -0.00047208284 -0.0035771756
-0.0013165529 -0.0011360639 -0.0025341164
-0.0013182273 -0.0010779357 -0.0021333168
-0.001333807 -0.0013232647 -0.0014866606
-0.0013475762 -0.00087122346 -0.0031308497
-0.0013505798 -0.00042591264 0.0030174004
-0.0013544866 -0.00019629387 -0.0036116659
-0.0013560306 -0.00078981684 -0.0027144356
-0.0013573548 -0.00090229622 -0.002711942
-0.0013583198 -0.0010336252 -0.0026343083
-0.0013629843 -0.0014238909 0.0014196775
-0.0013643007 -0.00094228971 -0.0021321967
-0.0013698383 -0.00080243801 0.0029635015
-0.0013701278 0.000143846 -0.0036063578
-0.0013708267 -0.0010224585 -0.0029833864
-0.0013740729 -0.00074869348 -0.0031325077
-0.0013824934 -0.00082817004 -0.0021097485
-0.0013825623 0.0017870811 -0.00030506676
-0.0013883229 -0.00077770854 -0.0020899249
-0.0013967213 -0.00073663058 -0.0026754679
-0.0014141874 -0.00060334604 -0.0033642347
-0.0014163858 -0.00081887253 -0.002088536
-0.0014242048 0.0015487135 -0.0021075583
-0.0014309589 -0.0013892893 -0.00048407327
-0.0014319841 -0.0010474122 -0.0020701275
-0.001432605 -0.00069168658 -0.0030831457
-0.0014326064 0.00091169198 -0.0032562374
-0.0014420485 -0.00077253574 -0.0026600198
-0.0014472372 -0.001151636 -0.002053594
-0.0014488286 -0.001331766 -0.0014238516
-0.001452727 -0.00092238089 -0.0020816044
-0.0014563217 -0.0013138915 0.0023488826
-0.0014630649 -0.00042421353 -0.003483823
-0.0014920573 0.00065710145 0.0024833267
-0.0014970946 -0.00086967106 -0.0026206253
-0.0015109541 -0.0014147101 0.00053252699
-0.0015185196 -0.00062848913 -0.0033063968
-0.0015186358 -0.00072227948 -0.0030400548
-0.0015262598 -0.001206411 -0.0020790258
-0.0015375399 -0.00015856436 -0.0035067913
-0.001541698 0.0016042179 0.00074489665
-0.0015556419 0.00054229627 -0.0034230629
-0.0015731207 0.00017386171 -0.0034967824
-0.0015740796 -0.00098640705 -0.0025001292
-0.0015916181 -0.0013311406 -0.0013276504
-0.0015987317 0.0012196645 0.0016962406
-0.0016071791 0.0012523826 -0.0026731158
-0.0016096779 -0.00073579722 -0.0032410831
-0.0016112991 -0.00082063361 -0.0029616437
-0.0016180585 -0.00043609188 -0.0033927187
-0.0016181127 -0.001077829 -0.002359773
-0.0016252164 0.0017082933 -0.001099325
-0.0016440218 -0.001228714 -0.0020892301
-0.0016476896 -0.0014114045 0.0015585594
-0.0016497601 -0.0013873228 -0.00035271657
-0.0016621472 -0.001149721 0.0024380614
-0.0016734366 -0.00095585774 -0.0027856245
-0.0016735449 -0.0010899308 -0.0024955289
-0.0016850136 0.00011473689 0.0025188103
-0.0017121913 -0.00016560619 -0.0033954536
-0.0017188382 -0.00094310567 -0.002960345
-0.0017346059 0.00090242515 -0.003045833
-0.0017499103 -0.0012370379 -0.0020515122
-0.001751952 -0.00047678026 -0.0033121987
-0.0017630919 -0.0013308427 -0.001207559
-0.0017738346 0.00016467775 -0.0033624144
-0.0017802363 -0.001408286 0.00067277765
-0.0017846436 -0.0008551827 0.002492364
-0.0017885074 -0.00041524385 0.002519913
-0.0017948952 -0.0010993138 -0.0025713982
-0.0018003229 0.00053057319 -0.0032553654
-0.0018067412 0.0014995188 -0.0018191143
-0.0018169235 0.0016213534 -6.0869941E-05
-0.0018340369 -0.001240288 -0.0019855357
-0.0018404281 -0.00073152489 -0.00316466
-0.0018727895 -0.0013835233 -0.00021814239
-0.0018789667 -0.000937759 -0.0029446441
-0.0018925854 -0.00019744893 -0.0032731167
-0.0019010247 0.00074115134 0.0017964653
-0.0019046833 -0.0011055124 -0.0025618393
-0.0019158927 -0.001342739 0.0016939603
-0.0019291608 0.0012799992 0.00092232082
-0.0019320858 0.0011945259 -0.0024071869
-0.0019381074 -0.00048999843 -0.0032015331
-0.0019544184 0.00012090594 -0.003220594
-0.00197267 -0.0013326091 -0.0010584274
-0.0020045997 -0.0012417214 -0.0018616164
-0.0020065175 0.00084073626 -0.002818421
-0.0020246229 0.00047350704 -0.0030722816
-0.0020248368 0.0015452851 -0.00084141782
-0.0020414463 -0.00023254647 -0.0031605524
-0.0020590916 -0.0011051937 -0.0024713783
-0.0020713669 -0.0013885591 0.00082342536
-0.0021125968 0.00017314444 0.0018527507
-0.0021223121 -0.0011716245 0.0018002418
-0.0021231291 -0.00092432083 -0.0028141362
-0.0021254311 -0.0013742063 -7.4037511E-05
-0.0021337543 4.3291315E-05 -0.0030754094
-0.0021341483 -0.00070190907 -0.0030014701
-0.0021423618 -0.00045732959 -0.0030685361
-0.0021467519 -0.00026497798 -0.0030763135
-0.0021581007 0.0013433452 -0.0015611859
-0.0021655569 -0.0013370248 -0.00090850913
-0.0021953022 0.001292615 0.00013149272
-0.0022225331 -0.0011038266 -0.0023507583
-0.0022261264 -0.0012513613 -0.0016828784
-0.0022280014 -0.0003894355 0.0018780206
-0.0022301602 0.001046925 -0.0021646374
-0.0022313783 0.00035645932 -0.0028957564
-0.0022338443 -0.00085934647 0.0018637767
-0.0022444732 0.00079050625 0.0010388595
-0.0022554246 0.00070295477 -0.0026056517
-0.0022736415 -0.0001016341 -0.0029649043
-0.0023412402 -0.0013167197 0.00096490933
-0.0023600911 -0.0009037467 -0.0026531997
-0.0023700017 -0.0003487005 -0.002896775
-0.0023831422 0.0012232112 -0.00064040651
-0.0023837353 -0.0013338088 -0.00076167402
-0.0023869087 -0.0012759129 -0.0014956988
-0.002399645 -0.0013499231 7.2292511E-05
-0.0024102766 -0.00064263225 -0.0028123925
-0.002423954 0.00015051654 -0.0027490314
-0.0024293223 -0.0011244455 -0.0021560858
-0.002477532 0.00021204073 0.0011083987
-0.0024829484 0.0010428785 -0.0013574358
-0.0024925878 0.00045899025 -0.002430001
-0.0025126992 0.00077480805 -0.001968259
-0.0025132154 0.0007958822 0.00025668231
-0.0025420049 -0.0011469508 0.0010755479
-0.0025585282 -0.001289095 -0.0013307028
-0.0025667485 -0.0011847072 -0.0019159848
-0.0026008144 -0.0001644889 -0.0026396317
-0.002603271 -0.00092635734 -0.0024192452
-0.0026154425 -0.00035993048 0.001145666
-0.0026263059 -0.0013083008 -0.00063551252
-0.0026405361 -0.00083519769 0.0011389639
-0.0026522013 -0.001233362 -0.0016908537
-0.0026551045 -0.0012754549 0.00020954249
-0.002693933 0.00073473202 -0.00050868397
-0.0027219346 9.7292206E-05 -0.002295638
-0.0027410942 -0.00058636116 -0.0024925675
-0.0027449084 -0.0010490461 -0.0021191663
-0.002755184 0.0002156274 0.00033468756
-0.0027616981 -0.0012625916 -0.0012459292
-0.0027782496 0.00058849307 -0.001216435
-0.0027816782 0.00036780682 -0.0018232984
-0.0028036865 -0.0011817992 -0.0017368859
-0.0028459653 -0.0011088281 0.00032286983
-0.0028563153 -0.0012302253 -0.0005161661
-0.0029027597 -0.00034615403 0.00038468663
-0.0029116459 -0.0008606232 -0.002111583
-0.0029154546 -0.00030692684 -0.0021379851
-0.0029341143 0.00017322697 -0.00041728065
-0.0029366147 -0.00080683001 0.00038728476
-0.0029609255 -0.0011752164 -0.0011601372
-0.0029777768 -0.0010645643 -0.0016940325
-0.0029993854 -8.4007072E-05 -0.0016802207
-0.003010703 7.5831842E-05 -0.0010997124
-0.0030300117 -0.0010653931 -0.00039600255
-0.0030461324 -0.00065076991 -0.0018813991
-0.0030787606 -0.0003533634 -0.00034258069
-0.0031071599 -0.00089077046 -0.0015221899
-0.0031092875 -0.0010092817 -0.0010233879
-0.0031125131 -0.00077957055 -0.00032374103
-0.0031266192 -0.00047504905 -0.0014969418
-0.003146016 -0.00038711436 -0.00097974774
-0.0031635081 -0.00072293926 -0.001332246
-0.0031770507 -0.00075236516 -0.00092825515
3 500 475 520
3 500 520 535
3 475 426 487
3 475 487 520
3 520 487 523
3 520 523 552
3 535 520 552
3 535 552 565
3 500 535 548
3 500 548 510
3 535 565 575
3 535 575 548
3 548 575 577
3 548 577 551
3 510 548 551
3 510 551 509
3 500 510 447
3 500 447 431
3 510 509 454
3 510 454 447
3 447 454 409
3 447 409 395
3 431 447 395
3 431 395 376
3 500 431 401
3 500 401 475
3 431 376 356
3 431 356 401
3 401 356 325
3 401 325 374
3 475 401 374
3 475 374 426
3 285 304 332
3 285 332 315
3 304 320 351
3 304 351 332
3 332 351 379
3 332 379 354
3 315 332 354
3 315 354 336
3 285 315 303
3 285 303 268
3 315 336 323
3 315 323 303
3 303 323 313
3 303 313 281
3 268 303 281
3 268 281 262
3 285 268 243
3 285 243 252
3 268 262 233
3 268 233 243
3 243 233 213
3 243 213 216
3 252 243 216
3 252 216 223
3 285 252 267
3 285 267 304
3 252 223 238
3 252 238 267
3 267 238 257
3 267 257 286
3 304 267 286
3 304 286 320
3 331 277 318
3 331 318 373
3 277 211 259
3 277 259 318
3 318 259 298
3 318 298 355
3 373 318 355
3 373 355 411
3 331 373 427
3 331 427 380
3 373 411 482
3 373 482 427
3 427 482 523
3 427 523 487
3 380 427 487
3 380 487 426
3 331 380 338
3 331 338 291
3 380 426 374
3 380 374 338
3 338 374 325
3 338 325 295
3 291 338 295
3 291 295 246
3 331 291 232
3 331 232 277
3 291 246 185
3 291 185 232
3 232 185 131
3 232 131 167
3 277 232 167
3 277 167 211
3 119 124 144
3 119 144 139
3 124 130 149
3 124 149 144
3 144 149 168
3 144 168 162
3 139 144 162
3 139 162 156
3 119 139 136
3 119 136 121
3 139 156 151
3 139 151 136
3 136 151 153
3 136 153 140
3 121 136 140
3 121 140 126
3 119 121 98
3 119 98 93
3 121 126 107
3 121 107 98
3 98 107 90
3 98 90 77
3 93 98 77
3 93 77 74
3 119 93 89
3 119 89 104
3 93 74 72
3 93 72 89
3 89 72 75
3 89 75 83
3 104 89 83
3 104 83 95
3 119 104 114
3 119 114 124
3 104 95 103
3 104 103 114
3 114 103 118
3 114 118 123
3 124 114 123
3 124 123 130
3 27 46 59
3 27 59 39
3 46 64 81
3 46 81 59
3 59 81 109
3 59 109 82
3 39 59 82
3 39 82 58
3 27 39 25
3 27 25 16
3 39 58 45
3 39 45 25
3 25 45 34
3 25 34 17
3 16 25 17
3 16 17 7
3 27 16 11
3 27 11 21
3 16 7 2
3 16 2 11
3 11 2 3
3 11 3 8
3 21 11 8
3 21 8 18
3 27 21 35
3 27 35 46
3 21 18 30
3 21 30 35
3 35 30 42
3 35 42 49
3 46 35 49
3 46 49 64
3 10 23 14
3 10 14 4
3 23 41 29
3 23 29 14
3 14 29 24
3 14 24 12
3 4 14 12
3 4 12 6
3 10 4 0
3 10 0 5
3 4 6 1
3 4 1 0
3 0 1 3
3 0 3 2
3 5 0 2
3 5 2 7
3 10 5 15
3 10 15 22
3 5 7 17
3 5 17 15
3 15 17 34
3 15 34 33
3 22 15 33
3 22 33 40
3 10 22 36
3 10 36 23
3 22 40 54
3 22 54 36
3 36 54 79
3 36 79 56
3 23 36 56
3 23 56 41
3 101 67 88
3 101 88 129
3 67 41 56
3 67 56 88
3 88 56 79
3 88 79 117
3 129 88 117
3 129 117 169
3 101 129 186
3 101 186 145
3 129 169 237
3 129 237 186
3 186 237 298
3 186 298 259
3 145 186 259
3 145 259 211
3 101 145 113
3 101 113 76
3 145 211 167
3 145 167 113
3 113 167 131
3 113 131 92
3 76 113 92
3 76 92 65
3 101 76 50
3 101 50 67
3 76 65 43
3 76 43 50
3 50 43 24
3 50 24 29
3 67 50 29
3 67 29 41
3 166 190 194
3 166 194 173
3 190 223 216
3 190 216 194
3 194 216 213
3 194 213 199
3 173 194 199
3 173 199 187
3 166 173 159
3 166 159 143
3 173 187 177
3 173 177 159
3 159 177 168
3 159 168 149
3 143 159 149
3 143 149 130
3 166 143 137
3 166 137 146
3 143 130 123
3 143 123 137
3 137 123 118
3 137 118 133
3 146 137 133
3 146 133 154
3 166 146 172
3 166 172 180
3 146 154 178
3 146 178 172
3 172 178 193
3 172 193 195
3 180 172 195
3 180 195 208
3 166 180 200
3 166 200 190
3 180 208 229
3 180 229 200
3 200 229 257
3 200 257 238
3 190 200 238
3 190 238 223
3 217 245 240
3 217 240 212
3 245 282 276
3 245 276 240
3 240 276 269
3 240 269 234
3 212 240 234
3 212 234 202
3 217 212 174
3 217 174 183
3 212 202 164
3 212 164 174
3 174 164 153
3 174 153 151
3 183 174 151
3 183 151 156
3 217 183 189
3 217 189 224
3 183 156 162
3 183 162 189
3 189 162 168
3 189 168 198
3 224 189 198
3 224 198 231
3 217 224 251
3 217 251 245
3 224 231 254
3 224 254 251
3 251 254 290
3 251 290 287
3 245 251 287
3 245 287 282
3 239 265 260
3 239 260 235
3 265 301 297
3 265 297 260
3 260 297 290
3 260 290 254
3 235 260 254
3 235 254 231
3 239 235 203
3 239 203 209
3 235 231 198
3 235 198 203
3 203 198 168
3 203 168 177
3 209 203 177
3 209 177 187
3 239 209 221
3 239 221 249
3 209 187 199
3 209 199 221
3 221 199 213
3 221 213 233
3 249 221 233
3 249 233 262
3 239 249 271
3 239 271 265
3 249 262 281
3 249 281 271
3 271 281 313
3 271 313 306
3 265 271 306
3 265 306 301
3 473 497 536
3 473 536 522
3 497 509 551
3 497 551 536
3 536 551 577
3 536 577 570
3 522 536 570
3 522 570 555
3 473 522 495
3 473 495 428
3 522 555 534
3 522 534 495
3 495 534 508
3 495 508 452
3 428 495 452
3 428 452 396
3 473 428 381
3 473 381 403
3 428 396 362
3 428 362 381
3 381 362 346
3 381 346 350
3 403 381 350
3 403 350 364
3 473 403 434
3 473 434 497
3 403 364 388
3 403 388 434
3 434 388 409
3 434 409 454
3 497 434 454
3 497 454 509
3 94 108 142
3 94 142 122
3 108 127 165
3 108 165 142
3 142 165 188
3 142 188 175
3 122 142 175
3 122 175 161
3 94 122 102
3 94 102 78
3 122 161 134
3 122 134 102
3 102 134 109
3 102 109 81
3 78 102 81
3 78 81 64
3 94 78 63
3 94 63 73
3 78 64 49
3 78 49 63
3 63 49 42
3 63 42 47
3 73 63 47
3 73 47 53
3 94 73 87
3 94 87 108
3 73 53 70
3 73 70 87
3 87 70 90
3 87 90 97
3 108 87 97
3 108 97 127
3 348 370 415
3 348 415 387
3 370 396 452
3 370 452 415
3 415 452 508
3 415 508 477
3 387 415 477
3 387 477 439
3 348 387 367
3 348 367 328
3 387 439 402
3 387 402 367
3 367 402 379
3 367 379 351
3 328 367 351
3 328 351 320
3 348 328 300
3 348 300 316
3 328 320 286
3 328 286 300
3 300 286 257
3 300 257 278
3 316 300 278
3 316 278 299
3 348 316 341
3 348 341 370
3 316 299 322
3 316 322 341
3 341 322 346
3 341 346 362
3 370 341 362
3 370 362 396
3 179 192 222
3 179 222 201
3 192 202 234
3 192 234 222
3 222 234 269
3 222 269 247
3 201 222 247
3 201 247 227
3 179 201 181
3 179 181 150
3 201 227 204
3 201 204 181
3 181 204 188
3 181 188 165
3 150 181 165
3 150 165 127
3 179 150 116
3 179 116 128
3 150 127 97
3 150 97 116
3 116 97 90
3 116 90 107
3 128 116 107
3 128 107 126
3 179 128 141
3 179 141 192
3 128 126 140
3 128 140 141
3 141 140 153
3 141 153 164
3 192 141 164
3 192 164 202
3 296 289 264
3 296 264 250
3 289 299 278
3 289 278 264
3 264 278 257
3 264 257 229
3 250 264 229
3 250 229 208
3 296 250 236
3 296 236 273
3 250 208 195
3 250 195 236
3 236 195 193
3 236 193 220
3 273 236 220
3 273 220 248
3 296 273 311
3 296 311 334
3 273 248 288
3 273 288 311
3 311 288 325
3 311 325 356
3 334 311 356
3 334 356 376
3 296 334 358
3 296 358 329
3 334 376 395
3 334 395 358
3 358 395 409
3 358 409 388
3 329 358 388
3 329 388 364
3 296 329 321
3 296 321 289
3 329 364 350
3 329 350 321
3 321 350 346
3 321 346 322
3 289 321 322
3 289 322 299
3 66 84 96
3 66 96 80
3 84 105 110
3 84 110 96
3 96 110 118
3 96 118 103
3 80 96 103
3 80 103 95
3 66 80 68
3 66 68 48
3 80 95 83
3 80 83 68
3 68 83 75
3 68 75 55
3 48 68 55
3 48 55 37
3 66 48 44
3 66 44 62
3 48 37 28
3 48 28 44
3 44 28 24
3 44 24 43
3 62 44 43
3 62 43 65
3 66 62 85
3 66 85 84
3 62 65 92
3 62 92 85
3 85 92 131
3 85 131 115
3 84 85 115
3 84 115 105
3 26 13 19
3 26 19 31
3 13 6 12
3 13 12 19
3 19 12 24
3 19 24 28
3 31 19 28
3 31 28 37
3 26 31 52
3 26 52 51
3 31 37 55
3 31 55 52
3 52 55 75
3 52 75 72
3 51 52 72
3 51 72 74
3 26 51 57
3 26 57 38
3 51 74 77
3 51 77 57
3 57 77 90
3 57 90 70
3 38 57 70
3 38 70 53
3 26 38 32
3 26 32 20
3 38 53 47
3 38 47 32
3 32 47 42
3 32 42 30
3 20 32 30
3 20 30 18
3 26 20 9
3 26 9 13
3 20 18 8
3 20 8 9
3 9 8 3
3 9 3 1
3 13 9 1
3 13 1 6
3 176 207 253
3 176 253 219
3 207 246 295
3 207 295 253
3 253 295 325
3 253 325 288
3 219 253 288
3 219 288 248
3 176 219 191
3 176 191 160
3 219 248 220
3 219 220 191
3 191 220 193
3 191 193 178
3 160 191 178
3 160 178 154
3 176 160 132
3 176 132 138
3 160 154 133
3 160 133 132
3 132 133 118
3 132 118 110
3 138 132 110
3 138 110 105
3 176 138 158
3 176 158 207
3 138 105 115
3 138 115 158
3 158 115 131
3 158 131 185
3 207 158 185
3 207 185 246
3 594 584 569
3 594 569 580
3 584 565 552
3 584 552 569
3 569 552 523
3 569 523 545
3 580 569 545
3 580 545 558
3 594 580 586
3 594 586 599
3 580 558 566
3 580 566 586
3 586 566 568
3 586 568 587
3 599 586 587
3 599 587 598
3 594 599 607
3 594 607 602
3 599 598 606
3 599 606 607
3 607 606 608
3 607 608 609
3 602 607 609
3 602 609 605
3 594 602 591
3 594 591 584
3 602 605 595
3 602 595 591
3 591 595 577
3 591 577 575
3 584 591 575
3 584 575 565
3 445 389 410
3 445 410 471
3 389 336 354
3 389 354 410
3 410 354 379
3 410 379 430
3 471 410 430
3 471 430 486
3 445 471 504
3 445 504 494
3 471 486 515
3 471 515 504
3 504 515 533
3 504 533 521
3 494 504 521
3 494 521 511
3 445 494 480
3 445 480 438
3 494 511 499
3 494 499 480
3 480 499 492
3 480 492 470
3 438 480 470
3 438 470 432
3 445 438 372
3 445 372 389
3 438 432 363
3 438 363 372
3 372 363 313
3 372 313 323
3 389 372 323
3 389 323 336
3 493 459 391
3 493 391 425
3 459 411 355
3 459 355 391
3 391 355 298
3 391 298 335
3 425 391 335
3 425 335 369
3 493 425 464
3 493 464 513
3 425 369 399
3 425 399 464
3 464 399 435
3 464 435 488
3 513 464 488
3 513 488 524
3 493 513 543
3 493 543 531
3 513 524 549
3 513 549 543
3 543 549 568
3 543 568 566
3 531 543 566
3 531 566 558
3 493 531 514
3 493 514 459
3 531 558 545
3 531 545 514
3 514 545 523
3 514 523 482
3 459 514 482
3 459 482 411
3 424 446 457
3 424 457 440
3 446 450 449
3 446 449 457
3 457 449 461
3 457 461 467
3 440 457 467
3 440 467 462
3 424 440 442
3 424 442 420
3 440 462 474
3 440 474 442
3 442 474 481
3 442 481 448
3 420 442 448
3 420 448 422
3 424 420 407
3 424 407 412
3 420 422 398
3 420 398 407
3 407 398 386
3 407 386 390
3 412 407 390
3 412 390 392
3 424 412 416
3 424 416 433
3 412 392 393
3 412 393 416
3 416 393 383
3 416 383 405
3 433 416 405
3 433 405 423
3 424 433 456
3 424 456 446
3 433 423 436
3 433 436 456
3 456 436 443
3 456 443 451
3 446 456 451
3 446 451 450
3 135 91 120
3 135 120 171
3 91 58 82
3 91 82 120
3 120 82 109
3 120 109 152
3 171 120 152
3 171 152 206
3 135 171 228
3 135 228 197
3 171 206 256
3 171 256 228
3 228 256 280
3 228 280 274
3 197 228 274
3 197 274 255
3 135 197 170
3 135 170 112
3 197 255 225
3 197 225 170
3 170 225 196
3 170 196 148
3 112 170 148
3 112 148 100
3 135 112 71
3 135 71 91
3 112 100 61
3 112 61 71
3 71 61 34
3 71 34 45
3 91 71 45
3 91 45 58
3 106 163 182
3 106 182 125
3 163 226 244
3 163 244 182
3 182 244 272
3 182 272 214
3 125 182 214
3 125 214 157
3 106 125 86
3 106 86 69
3 125 157 111
3 125 111 86
3 86 111 79
3 86 79 54
3 69 86 54
3 69 54 40
3 106 69 60
3 106 60 99
3 69 40 33
3 69 33 60
3 60 33 34
3 60 34 61
3 99 60 61
3 99 61 100
3 106 99 147
3 106 147 163
3 99 100 148
3 99 148 147
3 147 148 196
3 147 196 210
3 163 147 210
3 163 210 226
3 266 218 155
3 266 155 205
3 218 169 117
3 218 117 155
3 155 117 79
3 155 79 111
3 205 155 111
3 205 111 157
3 266 205 261
3 266 261 307
3 205 157 214
3 205 214 261
3 261 214 272
3 261 272 305
3 307 261 305
3 307 305 343
3 266 307 353
3 266 353 319
3 307 343 384
3 307 384 353
3 353 384 435
3 353 435 399
3 319 353 399
3 319 399 369
3 266 319 279
3 266 279 218
3 319 369 335
3 319 335 279
3 279 335 298
3 279 298 237
3 218 279 237
3 218 237 169
3 489 490 498
3 489 498 502
3 490 476 485
3 490 485 498
3 498 485 492
3 498 492 499
3 502 498 499
3 502 499 511
3 489 502 518
3 489 518 516
3 502 511 521
3 502 521 518
3 518 521 533
3 518 533 537
3 516 518 537
3 516 537 540
3 489 516 525
3 489 525 505
3 516 540 541
3 516 541 525
3 525 541 542
3 525 542 532
3 505 525 532
3 505 532 519
3 489 505 491
3 489 491 478
3 505 519 501
3 505 501 491
3 491 501 481
3 491 481 474
3 478 491 474
3 478 474 462
3 489 478 479
3 489 479 490
3 478 462 467
3 478 467 479
3 479 467 461
3 479 461 469
3 490 479 469
3 490 469 476
3 404 397 324
3 404 324 337
3 397 385 314
3 397 314 324
3 324 314 269
3 324 269 276
3 337 324 276
3 337 276 282
3 404 337 340
3 404 340 408
3 337 282 287
3 337 287 340
3 340 287 290
3 340 290 344
3 408 340 344
3 408 344 406
3 404 408 458
3 404 458 453
3 408 406 460
3 408 460 458
3 458 460 461
3 458 461 449
3 453 458 449
3 453 449 450
3 404 453 444
3 404 444 397
3 453 450 451
3 453 451 444
3 444 451 443
3 444 443 437
3 397 444 437
3 397 437 385
3 418 417 347
3 418 347 352
3 417 406 344
3 417 344 347
3 347 344 290
3 347 290 297
3 352 347 297
3 352 297 301
3 418 352 361
3 418 361 421
3 352 301 306
3 352 306 361
3 361 306 313
3 361 313 363
3 421 361 363
3 421 363 432
3 418 421 466
3 418 466 472
3 421 432 470
3 421 470 466
3 466 470 492
3 466 492 485
3 472 466 485
3 472 485 476
3 418 472 463
3 418 463 417
3 472 476 469
3 472 469 463
3 463 469 461
3 463 461 460
3 417 463 460
3 417 460 406
3 590 579 589
3 590 589 600
3 579 555 570
3 579 570 589
3 589 570 577
3 589 577 595
3 600 589 595
3 600 595 605
3 590 600 604
3 590 604 596
3 600 605 609
3 600 609 604
3 604 609 608
3 604 608 603
3 596 604 603
3 596 603 597
3 590 596 585
3 590 585 576
3 596 597 588
3 596 588 585
3 585 588 578
3 585 578 571
3 576 585 571
3 576 571 559
3 590 576 561
3 590 561 579
3 576 559 538
3 576 538 561
3 561 538 508
3 561 508 534
3 579 561 534
3 579 534 555
3 270 215 230
3 270 230 292
3 215 161 175
3 215 175 230
3 230 175 188
3 230 188 241
3 292 230 241
3 292 241 312
3 270 292 333
3 270 333 309
3 292 312 360
3 292 360 333
3 333 360 383
3 333 383 359
3 309 333 359
3 309 359 327
3 270 309 284
3 270 284 242
3 309 327 308
3 309 308 284
3 284 308 280
3 284 280 256
3 242 284 256
3 242 256 206
3 270 242 184
3 270 184 215
3 242 206 152
3 242 152 184
3 184 152 109
3 184 109 134
3 215 184 134
3 215 134 161
3 527 496 517
3 527 517 544
3 496 439 477
3 496 477 517
3 517 477 508
3 517 508 538
3 544 517 538
3 544 538 559
3 527 544 560
3 527 560 547
3 544 559 571
3 544 571 560
3 560 571 578
3 560 578 572
3 547 560 572
3 547 572 564
3 527 547 528
3 527 528 506
3 547 564 546
3 547 546 528
3 528 546 533
3 528 533 515
3 506 528 515
3 506 515 486
3 527 506 465
3 527 465 496
3 506 486 430
3 506 430 465
3 465 430 379
3 465 379 402
3 496 465 402
3 496 402 439
3 349 275 293
3 349 293 365
3 275 227 247
3 275 247 293
3 293 247 269
3 293 269 314
3 365 293 314
3 365 314 385
3 349 365 429
3 349 429 413
3 365 385 437
3 365 437 429
3 429 437 443
3 429 443 436
3 413 429 436
3 413 436 423
3 349 413 382
3 349 382 330
3 413 423 405
3 413 405 382
3 382 405 383
3 382 383 360
3 330 382 360
3 330 360 312
3 349 330 258
3 349 258 275
3 330 312 241
3 330 241 258
3 258 241 188
3 258 188 204
3 275 258 204
3 275 204 227
3 582 562 556
3 582 556 574
3 562 540 537
3 562 537 556
3 556 537 533
3 556 533 546
3 574 556 546
3 574 546 564
3 582 574 583
3 582 583 592
3 574 564 572
3 574 572 583
3 583 572 578
3 583 578 588
3 592 583 588
3 592 588 597
3 582 592 601
3 582 601 593
3 592 597 603
3 592 603 601
3 601 603 608
3 601 608 606
3 593 601 606
3 593 606 598
3 582 593 581
3 582 581 573
3 593 598 587
3 593 587 581
3 581 587 568
3 581 568 567
3 573 581 567
3 573 567 563
3 582 573 557
3 582 557 562
3 573 563 554
3 573 554 557
3 557 554 542
3 557 542 541
3 562 557 541
3 562 541 540
3 400 419 455
3 400 455 441
3 419 422 448
3 419 448 455
3 455 448 481
3 455 481 484
3 441 455 484
3 441 484 483
3 400 441 414
3 400 414 375
3 441 483 468
3 441 468 414
3 414 468 435
3 414 435 384
3 375 414 384
3 375 384 343
3 400 375 345
3 400 345 377
3 375 343 305
3 375 305 345
3 345 305 272
3 345 272 317
3 377 345 317
3 377 317 357
3 400 377 394
3 400 394 419
3 377 357 378
3 377 378 394
3 394 378 386
3 394 386 398
3 419 394 398
3 419 398 422
3 326 342 302
3 326 302 283
3 342 357 317
3 342 317 302
3 302 317 272
3 302 272 244
3 283 302 244
3 283 244 226
3 326 283 263
3 326 263 294
3 283 226 210
3 283 210 263
3 263 210 196
3 263 196 225
3 294 263 225
3 294 225 255
3 326 294 310
3 326 310 339
3 294 255 274
3 294 274 310
3 310 274 280
3 310 280 308
3 339 310 308
3 339 308 327
3 326 339 368
3 326 368 366
3 339 327 359
3 339 359 368
3 368 359 383
3 368 383 393
3 366 368 393
3 366 393 392
3 326 366 371
3 326 371 342
3 366 392 390
3 366 390 371
3 371 390 386
3 371 386 378
3 342 371 378
3 342 378 357
3 530 550 553
3 530 553 529
3 550 563 567
3 550 567 553
3 553 567 568
3 553 568 549
3 529 553 549
3 529 549 524
3 530 529 503
3 530 503 512
3 529 524 488
3 529 488 503
3 503 488 435
3 503 435 468
3 512 503 468
3 512 468 483
3 530 512 507
3 530 507 526
3 512 483 484
3 512 484 507
3 507 484 481
3 507 481 501
3 526 507 501
3 526 501 519
3 530 526 539
3 530 539 550
3 526 519 532
3 526 532 539
3 539 532 542
3 539 542 554
3 550 539 554
3 550 554 563
